<?xml version="1.0" encoding="UTF-8" standalone="no"?>
<svg
   version="1.1"
   id="Layer_1"
   x="0px"
   y="0px"
   width="100%"
   viewBox="0 0 512 512"
   enable-background="new 0 0 512 512"
   xml:space="preserve"
   sodipodi:docname="CV_new.svg"
   inkscape:version="1.1.1 (c3084ef, 2021-09-22)"
   xmlns:inkscape="http://www.inkscape.org/namespaces/inkscape"
   xmlns:sodipodi="http://sodipodi.sourceforge.net/DTD/sodipodi-0.dtd"
   xmlns="http://www.w3.org/2000/svg"
   xmlns:svg="http://www.w3.org/2000/svg"><defs
   id="defs841" /><sodipodi:namedview
   id="namedview839"
   pagecolor="#505050"
   bordercolor="#eeeeee"
   borderopacity="1"
   inkscape:pageshadow="0"
   inkscape:pageopacity="0"
   inkscape:pagecheckerboard="0"
   showgrid="false"
   inkscape:zoom="0.70900204"
   inkscape:cx="399.85781"
   inkscape:cy="246.12059"
   inkscape:window-width="1280"
   inkscape:window-height="755"
   inkscape:window-x="0"
   inkscape:window-y="23"
   inkscape:window-maximized="0"
   inkscape:current-layer="Layer_1" />
<path
   fill="#0055AA"
   opacity="1.000000"
   stroke="none"
   d=" M1.000001,476.000000   C1.000000,330.309265 1.000000,184.618515 1.366725,38.610863   C2.160402,37.643669 2.749577,37.048191 2.990497,36.335056   C8.512188,19.990669 19.569323,9.122326 35.617687,3.100955   C36.544132,2.753351 37.211864,1.716229 38.000000,1.000000   C183.690750,1.000000 329.381500,1.000000 475.396484,1.367878   C476.371735,2.162528 476.968079,2.750580 477.681732,2.992413   C494.018127,8.528457 504.892670,19.581417 510.906464,35.635628   C511.251221,36.556015 512.286255,37.217834 513.000000,38.000000   C513.000000,183.690750 513.000000,329.381500 512.632080,475.396484   C511.837463,476.371735 511.249359,476.968048 511.007538,477.681732   C505.471405,494.018097 494.418579,504.892670 478.364319,510.906433   C477.443939,511.251190 476.782166,512.286255 476.000000,513.000000   C330.309265,513.000000 184.618515,513.000000 38.610863,512.633301   C37.643677,511.839600 37.048191,511.250427 36.335068,511.009521   C19.990650,505.487854 9.122355,494.430664 3.100951,478.382324   C2.753354,477.455872 1.716228,476.788147 1.000001,476.000000  M354.133759,390.666901   C358.727417,395.825806 364.647766,395.638153 371.832275,390.495758   C383.356903,382.246857 390.361908,370.755005 396.053253,358.124268   C417.124908,311.360352 433.938171,263.008331 450.016754,214.373810   C454.670685,200.296738 459.459290,186.274139 459.578247,171.195572   C459.753937,148.920959 450.253754,132.106812 430.994324,120.973595   C426.847473,118.576439 421.842621,116.018738 417.375092,118.962410   C413.128662,121.760384 414.087860,127.101608 414.895050,131.450745   C417.261047,144.198929 420.129395,156.853836 422.499847,169.601288   C423.050598,172.563156 423.067719,175.947723 422.206726,178.798416   C413.938782,206.173264 405.648163,233.545288 396.921082,260.776184   C389.923309,282.611359 382.312317,304.250000 374.628723,326.996338   C373.444244,324.171478 372.663696,322.370667 371.929871,320.551025   C353.709442,275.370728 335.627594,230.133865 317.217865,185.030853   C308.798340,164.403320 295.371185,147.724426 275.554840,136.941666   C271.958191,134.984589 267.372284,134.405106 263.178070,134.108368   C258.830048,133.800766 256.690582,136.785126 257.578888,140.976852   C258.573364,145.669525 259.776154,150.413406 261.661255,154.803024   C266.186371,165.340057 271.425293,175.571533 275.915344,186.122437   C300.524231,243.949203 324.876007,301.885803 349.647095,359.642700   C353.122192,367.745300 356.741699,375.326843 353.986725,384.371979   C353.477509,386.043762 353.924835,388.006836 354.133759,390.666901  M226.648041,152.837494   C229.522964,146.761429 228.500839,144.007507 220.831726,140.170715   C194.999969,127.247345 168.039963,124.332474 140.371628,132.856201   C108.624237,142.636566 87.343597,164.776337 73.087608,193.748489   C50.434948,239.785049 49.632683,287.305389 65.873695,335.458832   C71.973213,353.543488 81.421600,369.625397 98.094299,379.838440   C131.308746,400.184296 166.081741,401.860870 201.766998,386.734711   C217.409790,380.104126 230.726318,370.223419 240.611176,356.333252   C243.691895,352.004242 245.950272,346.714478 247.155487,341.532074   C248.354980,336.374329 244.409058,333.116028 239.228394,334.605865   C232.875793,336.432678 226.653625,338.844940 220.577911,341.473053   C210.520584,345.823425 200.857346,351.177277 190.604340,354.959747   C177.309143,359.864502 163.294022,361.280548 149.275406,358.691406   C129.764389,355.087799 118.258972,341.568787 109.922394,324.882111   C97.610893,300.239166 95.207108,274.081970 98.346710,247.015335   C100.751572,226.283005 106.575470,207.039703 119.431259,190.223145   C129.772476,176.695892 142.020676,165.909912 158.508102,160.448685   C171.616623,156.106659 184.705170,157.324661 198.008987,159.299377   C207.917755,160.770157 218.057037,161.485397 226.648041,152.837494  z"
   id="path824" />





<g
   id="g1011"><path
     fill="#FDFEFE"
     opacity="1.000000"
     stroke="none"
     d=" M354.032227,390.251190   C353.924835,388.006836 353.477509,386.043762 353.986725,384.371979   C356.741699,375.326843 353.122192,367.745300 349.647095,359.642700   C324.876007,301.885803 300.524231,243.949203 275.915344,186.122437   C271.425293,175.571533 266.186371,165.340057 261.661255,154.803024   C259.776154,150.413406 258.573364,145.669525 257.578888,140.976852   C256.690582,136.785126 258.830048,133.800766 263.178070,134.108368   C267.372284,134.405106 271.958191,134.984589 275.554840,136.941666   C295.371185,147.724426 308.798340,164.403320 317.217865,185.030853   C335.627594,230.133865 353.709442,275.370728 371.929871,320.551025   C372.663696,322.370667 373.444244,324.171478 374.628723,326.996338   C382.312317,304.250000 389.923309,282.611359 396.921082,260.776184   C405.648163,233.545288 413.938782,206.173264 422.206726,178.798416   C423.067719,175.947723 423.050598,172.563156 422.499847,169.601288   C420.129395,156.853836 417.261047,144.198929 414.895050,131.450745   C414.087860,127.101608 413.128662,121.760384 417.375092,118.962410   C421.842621,116.018738 426.847473,118.576439 430.994324,120.973595   C450.253754,132.106812 459.753937,148.920959 459.578247,171.195572   C459.459290,186.274139 454.670685,200.296738 450.016754,214.373810   C433.938171,263.008331 417.124908,311.360352 396.053253,358.124268   C390.361908,370.755005 383.356903,382.246857 371.832275,390.495758   C364.647766,395.638153 358.727417,395.825806 354.032227,390.251190  z"
     id="path834" /><path
     fill="#FDFEFE"
     opacity="1.000000"
     stroke="none"
     d=" M226.400818,153.130249   C218.057037,161.485397 207.917755,160.770157 198.008987,159.299377   C184.705170,157.324661 171.616623,156.106659 158.508102,160.448685   C142.020676,165.909912 129.772476,176.695892 119.431259,190.223145   C106.575470,207.039703 100.751572,226.283005 98.346710,247.015335   C95.207108,274.081970 97.610893,300.239166 109.922394,324.882111   C118.258972,341.568787 129.764389,355.087799 149.275406,358.691406   C163.294022,361.280548 177.309143,359.864502 190.604340,354.959747   C200.857346,351.177277 210.520584,345.823425 220.577911,341.473053   C226.653625,338.844940 232.875793,336.432678 239.228394,334.605865   C244.409058,333.116028 248.354980,336.374329 247.155487,341.532074   C245.950272,346.714478 243.691895,352.004242 240.611176,356.333252   C230.726318,370.223419 217.409790,380.104126 201.766998,386.734711   C166.081741,401.860870 131.308746,400.184296 98.094299,379.838440   C81.421600,369.625397 71.973213,353.543488 65.873695,335.458832   C49.632683,287.305389 50.434948,239.785049 73.087608,193.748489   C87.343597,164.776337 108.624237,142.636566 140.371628,132.856201   C168.039963,124.332474 194.999969,127.247345 220.831726,140.170715   C228.500839,144.007507 229.522964,146.761429 226.400818,153.130249  z"
     id="path836" /></g>
</svg>
